Coordinates
version=1
nRows=16
nColumns=42
inDegrees=yes

Units are S.I. units (second, meters, Newtons, ...)
If the header above contains a line with 'inDegrees', this indicates whether rotational values are in degrees (yes) or radians (no).

endheader
time	pelvis_tilt	pelvis_list	pelvis_rotation	pelvis_tx	pelvis_ty	pelvis_tz	hip_flexion_r	hip_adduction_r	hip_rotation_r	knee_angle_r	knee_adduction_r	knee_angle_r_beta	ankle_angle_r	subtalar_angle_r	mtp_angle_r	hip_flexion_l	hip_adduction_l	hip_rotation_l	knee_angle_l	knee_adduction_l	knee_angle_l_beta	ankle_angle_l	subtalar_angle_l	mtp_angle_l	lumbar_extension	lumbar_bending	lumbar_rotation	arm_flex_r	arm_add_r	arm_rot_r	elbow_flex_r	pro_sup_r	wrist_flex_r	wrist_dev_r	arm_flex_l	arm_add_l	arm_rot_l	elbow_flex_l	pro_sup_l	wrist_flex_l	wrist_dev_l
      0.92000000	     10.33953637	      0.27990643	      8.97310511	     -0.62526477	      0.87480048	      0.16237536	      8.65084415	      0.88006866	     -8.86587223	     61.29534900	     -4.42892274	      1.06980566	     18.89068108	    -16.55270239	     -7.84235472	      5.46440180	      6.25881904	     -9.69032239	     30.62626412	     -9.00167376	      0.53452915	     24.24071838	      3.52745615	     -7.84235472	    -40.57077417	      3.60327008	     -5.23885206	     14.53962468	     -6.52863414	     -1.01070312	     37.73820357	     90.00000001	      0.00000000	      0.00000000	     19.50374435	    -10.21914984	    -12.53308853	     30.83389771	     90.00000001	      0.00000000	      0.00000000
      0.93000000	     10.18063106	      0.19370497	      9.07032623	     -0.61740794	      0.87482775	      0.16173008	     10.00020442	      0.84792957	     -8.59170989	     59.78513343	     -4.30637053	      1.04344742	     19.14111706	    -16.24240537	     -7.83628571	      5.04905265	      6.23474404	     -9.54840123	     30.63159893	     -9.15448209	      0.53462226	     24.76748201	      3.53750498	     -7.83628571	    -40.51992304	      3.83206908	     -5.34614082	     14.23378430	     -6.42670727	     -1.11855625	     36.94739676	     90.00000001	      0.00000000	      0.00000000	     20.09043036	    -10.42501089	    -11.89776316	     31.40147664	     90.00000001	      0.00000000	      0.00000000
      0.94000000	     10.32727340	     -0.02554393	      9.24191341	     -0.60922601	      0.87544840	      0.16140965	     10.71017244	      1.11222092	     -8.04931067	     57.64657997	     -3.86707847	      1.00612262	     19.04046516	    -16.16447569	     -7.82340972	      4.24154772	      5.79424804	     -9.30102064	     30.62358847	     -8.93181042	      0.53448245	     25.43473192	      3.71096372	     -7.82340972	    -40.76438737	      4.21548229	     -5.37820830	     14.06150223	     -6.16644280	     -1.73145010	     35.84229213	     90.00000001	      0.00000000	      0.00000000	     20.47888171	    -10.88707708	    -10.10038664	     32.38158440	     90.00000001	      0.00000000	      0.00000000
      0.95000000	     10.20168491	     -0.09044935	      9.32218173	     -0.60124729	      0.87531338	      0.16089283	     11.77419461	      1.04532672	     -7.71040154	     55.54634698	     -3.56377276	      0.96946664	     19.10582044	    -15.83651624	     -7.81399703	      3.79945160	      5.75225123	     -9.23615603	     30.66681522	     -9.06816970	      0.53523690	     26.01575502	      3.71353700	     -7.81399703	    -40.72878178	      4.40962171	     -5.46771740	     13.76018135	     -6.05911573	     -2.02262126	     35.15875481	     90.00000001	      0.00000000	      0.00000000	     21.02630516	    -11.11677295	     -9.28198935	     33.04098779	     90.00000001	      0.00000000	      0.00000000
      0.96000000	     10.15615941	     -0.19988270	      9.40830744	     -0.59309403	      0.87522757	      0.16057607	     12.58084428	      1.11021737	     -7.25097456	     53.05834665	     -3.18774104	      0.92604284	     18.96114750	    -15.58285595	     -7.80367615	      3.25232018	      5.59220523	     -9.13455858	     30.70923579	     -9.13077491	      0.53597728	     26.59959094	      3.77467023	     -7.80367615	    -40.76215079	      4.63290562	     -5.51856716	     13.43994471	     -5.94103532	     -2.46413709	     34.42259771	     90.00000001	      0.00000000	      0.00000000	     21.48106621	    -11.41569415	     -8.35911372	     33.78019037	     90.00000001	      0.00000000	      0.00000000
      0.97000000	     10.11965555	     -0.28630888	      9.44313770	     -0.58484702	      0.87508373	      0.16039550	     13.26225250	      1.17042611	     -6.79317088	     50.31146256	     -2.83841327	      0.87810067	     18.60107419	    -15.53776810	     -7.79099234	      2.64429944	      5.44181396	     -9.13046549	     30.65189600	     -9.20599967	      0.53497651	     27.13004869	      3.96834776	     -7.79099234	    -40.80019678	      4.80766092	     -5.52744743	     13.07264491	     -5.80026814	     -3.05056422	     33.83657137	     90.00000001	      0.00000000	      0.00000000	     21.91952484	    -11.69834357	     -7.41329941	     34.57684725	     90.00000001	      0.00000000	      0.00000000
      0.98000000	      9.99584273	     -0.32867523	      9.50868881	     -0.57665283	      0.87457097	      0.16015404	     13.96638741	      1.11849568	     -6.42410630	     47.41825802	     -2.46868895	      0.82760473	     18.37401663	    -15.37910278	     -7.78102390	      2.20994243	      5.36828271	     -9.17811583	     30.74418713	     -9.33805781	      0.53658729	     27.75401982	      4.06639685	     -7.78102390	    -40.73132471	      4.94282969	     -5.62040045	     12.72395778	     -5.68199707	     -3.48553972	     33.21872159	     90.00000001	      0.00000000	      0.00000000	     22.35685985	    -11.95153164	     -6.76680243	     35.27977614	     90.00000001	      0.00000000	      0.00000000
      0.99000000	      9.85836388	     -0.35227294	      9.57896194	     -0.56838819	      0.87394329	      0.15995009	     14.57088126	      1.02169073	     -6.20140656	     44.30278660	     -2.14206956	      0.77322949	     18.09918263	    -15.22695041	     -7.77247577	      1.77094566	      5.31658366	     -9.31720044	     30.79427877	     -9.52342137	      0.53746156	     28.37482484	      4.20565055	     -7.77247577	    -40.63995266	      5.05811096	     -5.70092708	     12.33644904	     -5.59796819	     -3.95613346	     32.67900026	     90.00000001	      0.00000000	      0.00000000	     22.75741714	    -12.18226064	     -6.17254759	     36.01624756	     90.00000001	      0.00000000	      0.00000000
      1.00000000	      9.50196682	     -0.23365986	      9.55409816	     -0.56023984	      0.87273263	      0.15988105	     15.47280289	      0.74369920	     -6.19400142	     41.30877199	     -2.05568590	      0.72097408	     17.86132708	    -14.86875209	     -7.76657728	      1.55639671	      5.55669935	     -9.47573099	     30.80051167	     -9.85364844	      0.53757034	     28.86351716	      4.32093952	     -7.76657728	    -40.33888249	      4.94551162	     -5.83522268	     11.87271151	     -5.52688487	     -4.27991589	     32.34387029	     90.00000001	      0.00000000	      0.00000000	     23.13533829	    -12.37418190	     -5.79533736	     36.66783524	     90.00000001	      0.00000000	      0.00000000
      1.01000000	      9.64430982	     -0.39758400	      9.62303873	     -0.55170185	      0.87259587	      0.16009240	     15.34026798	      0.96300282	     -6.09569685	     37.38638480	     -1.80964740	      0.65251551	     17.43743698	    -14.84321960	     -7.75796171	      0.77480928	      5.06785009	     -9.72346194	     30.84775658	     -9.75005819	      0.53839492	     29.59829798	      4.82929816	     -7.75796171	    -40.53902890	      5.20176108	     -5.79884892	     11.59130333	     -5.35403404	     -5.05056564	     31.78775676	     90.00000001	      0.00000000	      0.00000000	     23.45137491	    -12.65920842	     -5.07416630	     37.61949267	     90.00000001	      0.00000000	      0.00000000
      1.02000000	      9.06012623	     -0.05290986	      9.41710686	     -0.54355529	      0.87067968	      0.16029238	     16.57819153	      0.35862380	     -6.56601617	     34.75335530	     -1.94492367	      0.60656048	     17.24239413	    -14.33613184	     -7.75394267	      0.74616986	      5.59404852	     -9.99220844	     30.80203123	     -9.99856060	      0.53759686	     29.90810513	      4.92814355	     -7.75394267	    -40.00879695	      4.73822873	     -5.91361188	     10.98804801	     -5.35870416	     -5.23511893	     31.65845511	     90.00000001	      0.00000000	      0.00000000	     23.79970771	    -12.78363580	     -4.92503203	     38.15809345	     90.00000001	      0.00000000	      0.00000000
      1.03000000	      9.56484625	     -0.42988321	      9.55239794	     -0.53450188	      0.87124294	      0.16072904	     15.43012969	      1.09772972	     -6.27386054	     29.89111299	     -1.78413915	      0.52169834	     16.32742172	    -14.53566941	     -7.73964709	     -0.51168482	      4.69188442	    -10.68033608	     30.63307053	    -10.01993909	      0.53464794	     30.92127306	      6.51116959	     -7.73964709	    -40.55163511	      5.26959022	     -5.72640875	     10.76813547	     -5.14548144	     -6.62166360	     31.24440247	     90.00000001	      0.00000000	      0.00000000	     23.99285243	    -13.08901419	     -4.11734295	     39.22664240	     90.00000001	      0.00000000	      0.00000000
      1.04000000	      9.40012150	     -0.48014268	      9.54641294	     -0.52597056	      0.87012456	      0.16113993	     15.51263254	      1.14803756	     -6.39240539	     26.24122335	     -1.65230837	      0.45799575	     15.82637050	    -14.25748060	     -7.72411352	     -0.87668027	      4.44480395	    -11.31795537	     30.76713032	    -10.22716054	      0.53698773	     31.71118931	      7.46966410	     -7.72411352	    -40.41674389	      5.32826592	     -5.72391906	     10.39473331	     -5.05379439	     -7.29209722	     30.97206965	     90.00000001	      0.00000000	      0.00000000	     24.19718409	    -13.25648138	     -3.87390659	     39.98675733	     90.00000001	      0.00000000	      0.00000000
      1.05000000	      9.21251375	     -0.50752598	      9.56424110	     -0.51738608	      0.86888457	      0.16157415	     15.60999783	      1.16815683	     -6.72060244	     22.88298195	     -1.58042384	      0.39938338	     15.44106169	    -13.54454058	     -7.71276631	     -1.26585490	      4.26148480	    -11.65777273	     30.86563287	    -10.35423342	      0.53870692	     32.38849763	      7.95411355	     -7.71276631	    -40.25361034	      5.37061730	     -5.74150540	     10.01370865	     -4.99662014	     -7.79414141	     30.73731082	     90.00000001	      0.00000000	      0.00000000	     24.34911465	    -13.40127589	     -3.69902017	     40.78844934	     90.00000001	      0.00000000	      0.00000000
      1.06000000	      9.05915712	     -0.51590045	      9.58465951	     -0.50866280	      0.86764695	      0.16203811	     15.57985307	      1.14763596	     -6.86319013	     19.79502850	     -1.32533370	      0.34548842	     14.92044620	    -12.97471373	     -7.70137889	     -1.72217985	      4.09272830	    -11.96799435	     30.93773331	    -10.46972362	      0.53996531	     33.06026236	      8.45919181	     -7.70137889	    -40.11245981	      5.40429643	     -5.75790998	      9.63374580	     -4.95226402	     -8.35694259	     30.55869233	     90.00000001	      0.00000000	      0.00000000	     24.45116407	    -13.52623858	     -3.55872531	     41.54617748	     90.00000001	      0.00000000	      0.00000000
      1.07000000	      8.88258424	     -0.54892446	      9.60925664	     -0.49989505	      0.86632047	      0.16263796	     15.53510713	      1.21003729	     -6.69741465	     17.07258553	     -1.06234670	      0.29797283	     14.32125459	    -12.74346406	     -7.68609988	     -2.14367291	      3.88687096	    -12.21944756	     31.03183444	    -10.56339919	      0.54160768	     33.70952526	      8.93804825	     -7.68609988	    -39.94339236	      5.44361407	     -5.75455529	      9.27704747	     -4.88408784	     -8.93132438	     30.40772222	     90.00000001	      0.00000000	      0.00000000	     24.52559546	    -13.62903822	     -3.48260253	     42.27527489	     90.00000001	      0.00000000	      0.00000000
